# xmcd
#
# Track frame offsets:
# 150
# 10766
# 24035
# 38401
# 52574
# 66151
# 76690
# 93596
# 105627
# 115549
# 128345
# 139417
#
# Disc length: 2063 seconds
#
#
# Revision: 0
# Processed by: cddbd v1.4PL0 Copyright (c) Steve Scherf et al.
# Submitted via: FreeRIP 2.30 
#
DISCID=7a080d0c
DTITLE=Country-Drengene - Country-Drengene
DYEAR=1987
DGENRE=Country
TTITLE0=On The Road Again
TTITLE1=Crying Time
TTITLE2=Somebody's Wrong Song
TTITLE3=Save The Last Dance
TTITLE4=In The Early Mornin' Rain
TTITLE5=San Antonio Rose
TTITLE6=Fanzy Free
TTITLE7=Story Of My Life
TTITLE8=He'll Have To Go
TTITLE9=Something In My Heart
TTITLE10=Green, Green Grass Of Home
TTITLE11=Love Me Gent'l
EXTD=
EXTT0=
EXTT1=
EXTT2=
EXTT3=
EXTT4=
EXTT5=
EXTT6=
EXTT7=
EXTT8=
EXTT9=
EXTT10=
EXTT11=
PLAYORDER=
